<svg viewBox="0 0 32 32" xmlns="http://www.w3.org/2000/svg">
    <rect width="32" height="32" rx="8" fill="#121212"/>
    <g opacity="0.9">
        <!-- Code Brackets -->
        <path d="M4 10L8 6L12 10L8 14L4 10Z" fill="#00b7ff" />
        <path d="M28 10L24 6L20 10L24 14L28 10Z" fill="#00b7ff" />
    </g>
    <!-- Clock Face -->
    <circle cx="16" cy="19" r="9" stroke="#ff2975" stroke-width="1.5" fill="none"/>
    <line x1="16" y1="19" x2="16" y2="14" stroke="#ffbd2e" stroke-width="1.5" stroke-linecap="round"/>
    <line x1="16" y1="19" x2="20" y2="21" stroke="#6e42ff" stroke-width="1.5" stroke-linecap="round"/>
    <!-- Markers -->
    <circle cx="16" cy="19" r="1" fill="#27c93f"/>
    <circle cx="16" cy="10" r="1" fill="#ff2975"/>
    <circle cx="22" cy="19" r="1" fill="#ff2975"/>
    <circle cx="16" cy="28" r="1" fill="#ff2975"/>
    <circle cx="10" cy="19" r="1" fill="#ff2975"/>
    <!-- Code Dots -->
    <circle cx="7" cy="25" r="1.5" fill="#6e42ff"/>
    <circle cx="11" cy="25" r="1.5" fill="#00b7ff"/>
    <circle cx="15" cy="25" r="1.5" fill="#27c93f"/>
    <circle cx="19" cy="25" r="1.5" fill="#ffbd2e"/>
    <circle cx="23" cy="25" r="1.5" fill="#ff2975"/>
</svg>
